<svg width="24" height="24" viewBox="0 0 24 24" fill="none" xmlns="http://www.w3.org/2000/svg">
<path d="M2 12.5C2 12.3674 2.05268 12.2402 2.14645 12.1464C2.24021 12.0527 2.36739 12 2.5 12H7.5C7.63261 12 7.75979 12.0527 7.85355 12.1464C7.94732 12.2402 8 12.3674 8 12.5V18C8 18.7956 7.68393 19.5587 7.12132 20.1213C6.55871 20.6839 5.79565 21 5 21C4.20435 21 3.44129 20.6839 2.87868 20.1213C2.31607 19.5587 2 18.7956 2 18V12.5ZM3 10.5H7V5.99998C7.00008 5.8295 6.95658 5.66184 6.87362 5.51291C6.79067 5.36397 6.67101 5.23872 6.52603 5.14905C6.38105 5.05937 6.21555 5.00825 6.04524 5.00054C5.87494 4.99282 5.7055 5.02878 5.553 5.10498L3.553 6.10498C3.38677 6.18804 3.24697 6.31579 3.14929 6.47388C3.05161 6.63197 2.99991 6.81415 3 6.99998V10.5ZM11 10.5C11 9.04129 11.5795 7.64234 12.6109 6.61089C13.6424 5.57944 15.0413 4.99998 16.5 4.99998C17.9587 4.99998 19.3576 5.57944 20.3891 6.61089C21.4205 7.64234 22 9.04129 22 10.5C22 11.9587 21.4205 13.3576 20.3891 14.3891C19.3576 15.4205 17.9587 16 16.5 16C15.0413 16 13.6424 15.4205 12.6109 14.3891C11.5795 13.3576 11 11.9587 11 10.5ZM15.75 17.71C16.2486 17.7637 16.7514 17.7637 17.25 17.71V19.5H19.5C19.6989 19.5 19.8897 19.579 20.0303 19.7196C20.171 19.8603 20.25 20.0511 20.25 20.25C20.25 20.4489 20.171 20.6397 20.0303 20.7803C19.8897 20.921 19.6989 21 19.5 21H13.5C13.3011 21 13.1103 20.921 12.9697 20.7803C12.829 20.6397 12.75 20.4489 12.75 20.25C12.75 20.0511 12.829 19.8603 12.9697 19.7196C13.1103 19.579 13.3011 19.5 13.5 19.5H15.75V17.71Z" fill="black"/>
</svg>
