<svg width="31" height="31" viewBox="0 0 31 31" fill="none" xmlns="http://www.w3.org/2000/svg">
<path d="M12.9167 18.9445V24.1111C12.9167 24.7963 13.1889 25.4533 13.6734 25.9378C14.1579 26.4223 14.8149 26.6945 15.5001 26.6945C16.1852 26.6945 16.8423 26.4223 17.3268 25.9378C17.8112 25.4533 18.0834 24.7963 18.0834 24.1111V18.9445H12.9167Z" fill="#FFDC5D"/>
<path d="M23.2501 23.25H7.75011C6.83659 23.25 5.96048 23.6129 5.31452 24.2589C4.66856 24.9048 4.30566 25.7809 4.30566 26.6944V31H26.6946V26.6944C26.6946 25.7809 26.3317 24.9048 25.6857 24.2589C25.0397 23.6129 24.1636 23.25 23.2501 23.25Z" fill="#4289C1"/>
<path d="M22.3889 27.5555H23.25V31H22.3889V27.5555ZM7.75 27.5555H8.61111V31H7.75V27.5555Z" fill="#2A6797"/>
<path d="M12.9167 18.9445V24.1111C12.9167 24.7963 13.1889 25.4533 13.6734 25.9378C14.1579 26.4223 14.8149 26.6945 15.5001 26.6945C16.1852 26.6945 16.8423 26.4223 17.3268 25.9378C17.8112 25.4533 18.0834 24.7963 18.0834 24.1111V18.9445H12.9167Z" fill="#FFDC5D"/>
<path d="M7.75 5.11328V14.6389C7.75 18.9195 11.2194 22.3889 15.5 22.3889C19.7806 22.3889 23.25 18.9195 23.25 14.6389V5.38195L7.75 5.11328Z" fill="#FFDC5D"/>
<path d="M9.34056 11.8102C9.34056 13.1708 8.65167 14.2738 7.8009 14.2738C6.95012 14.2738 6.26123 13.1708 6.26123 11.8102C6.26123 10.4496 6.95098 9.34656 7.8009 9.34656C8.65081 9.34656 9.34056 10.4496 9.34056 11.8102ZM24.739 11.8102C24.739 13.1708 24.0501 14.2738 23.1993 14.2738C22.3485 14.2738 21.6596 13.1708 21.6596 11.8102C21.6596 10.4496 22.3485 9.34656 23.1993 9.34656C24.0501 9.34656 24.739 10.4496 24.739 11.8102Z" fill="#FFDC5D"/>
<path d="M15.5001 0.70874C9.45595 0.70874 6.76929 4.74218 6.76929 8.10396C6.76929 11.4657 7.92576 12.3975 8.11262 11.4649C8.78429 8.10396 10.7993 7.07235 10.7993 7.07235C14.8293 10.4341 14.1576 7.74488 14.1576 7.74488C18.1868 11.7783 16.1726 7.74488 16.1726 7.74488C17.516 9.08994 21.5451 9.08993 21.5451 9.08993C21.5451 9.08993 22.2168 10.1215 22.8876 11.4657C23.5592 12.8108 24.2309 11.4657 24.2309 8.10482C24.2309 4.74218 20.8726 0.70874 15.5001 0.70874Z" fill="#FFAC33"/>
<path d="M15.5001 19.8056C16.4512 19.8056 17.2223 19.4201 17.2223 18.9445C17.2223 18.4689 16.4512 18.0834 15.5001 18.0834C14.5489 18.0834 13.7778 18.4689 13.7778 18.9445C13.7778 19.4201 14.5489 19.8056 15.5001 19.8056Z" fill="#C1694F"/>
<path d="M16.361 16.7917H14.6388C14.5246 16.7917 14.4151 16.7463 14.3344 16.6655C14.2536 16.5848 14.2083 16.4753 14.2083 16.3611C14.2083 16.2469 14.2536 16.1374 14.3344 16.0566C14.4151 15.9759 14.5246 15.9305 14.6388 15.9305H16.361C16.4752 15.9305 16.5847 15.9759 16.6655 16.0566C16.7462 16.1374 16.7916 16.2469 16.7916 16.3611C16.7916 16.4753 16.7462 16.5848 16.6655 16.6655C16.5847 16.7463 16.4752 16.7917 16.361 16.7917Z" fill="#C1694F"/>
<path d="M24.639 3.78629L22.9573 2.10454L22.5052 2.63756L19.4913 1.54309V2.90365L17.2266 3.42634C16.7073 3.54776 16.3827 4.06615 16.5024 4.58626C16.6212 5.10637 17.1413 5.43015 17.6606 5.31045L20.7425 4.60004L22.2839 6.14228C22.5422 6.40062 22.9745 6.64259 23.4283 6.78898L24.0121 11.5991C24.0121 11.5991 24.0121 12.3526 24.7656 12.3526C25.5191 12.3526 25.5191 11.5991 25.5191 11.5991V5.57137L24.639 3.78629Z" fill="#EF9645"/>
<path d="M24.9352 3.49008L23.2534 1.80833L22.8013 0H19.7874V2.60658L17.5227 3.12928C17.0035 3.25069 16.6788 3.76908 16.7985 4.28919C16.9173 4.80931 17.4375 5.13308 17.9567 5.01339L21.0386 4.30297L22.58 5.84522C22.8383 6.10356 23.2706 6.34553 23.7244 6.49192L24.3083 11.3021C24.3083 11.3021 24.3083 12.0556 25.0617 12.0556C25.8152 12.0556 25.8152 11.3021 25.8152 11.3021V5.27431L24.9352 3.49008Z" fill="#FFDC5D"/>
<path d="M6.36101 3.78626L8.04276 2.10451L8.49485 2.63754L11.5087 1.43542V2.90362L13.7735 3.42631C14.2927 3.54773 14.6173 4.06612 14.4977 4.58623C14.3788 5.10634 13.8587 5.43012 13.3395 5.31042L10.2575 4.60001L8.71615 6.14226C8.45782 6.40059 8.02554 6.64256 7.57174 6.78895L6.9879 11.5991C6.9879 11.5991 6.9879 12.3526 6.23443 12.3526C5.48096 12.3526 5.48096 11.5991 5.48096 11.5991V5.57134L6.36101 3.78626Z" fill="#EF9645"/>
<path d="M6.06487 3.49008L7.74662 1.80833L8.1987 0H11.2126V2.60658L13.4773 3.12928C13.9966 3.25069 14.3212 3.76908 14.2015 4.28919C14.0827 4.80931 13.5626 5.13308 13.0433 5.01339L9.9614 4.30297L8.42001 5.84522C8.16168 6.10356 7.7294 6.34553 7.27559 6.49192L6.69176 11.3021C6.69176 11.3021 6.69176 12.0556 5.93829 12.0556C5.18481 12.0556 5.18481 11.3021 5.18481 11.3021V5.27431L6.06487 3.49008Z" fill="#FFDC5D"/>
<path d="M20.5858 12.9649C20.5488 12.9351 20.503 12.9183 20.4555 12.9172C20.408 12.9161 20.3615 12.9308 20.3232 12.9589C20.318 12.9632 19.7807 13.3472 18.7292 13.3472C17.6787 13.3472 17.1405 12.9632 17.1362 12.9597C17.0981 12.931 17.0516 12.9158 17.0039 12.9164C16.9562 12.917 16.9101 12.9334 16.8727 12.9631C16.8354 12.9927 16.809 13.034 16.7976 13.0803C16.7862 13.1266 16.7905 13.1753 16.8098 13.2189C16.8357 13.2775 17.4565 14.6389 18.7292 14.6389C20.002 14.6389 20.6228 13.2775 20.6487 13.2198C20.6678 13.1763 20.6719 13.1278 20.6606 13.0817C20.6492 13.0356 20.6229 12.9945 20.5858 12.9649ZM14.1275 12.9649C14.0905 12.9351 14.0447 12.9183 13.9972 12.9172C13.9497 12.9161 13.9031 12.9308 13.8648 12.9589C13.8597 12.9632 13.3223 13.3472 12.2709 13.3472C11.2204 13.3472 10.6822 12.9632 10.6779 12.9597C10.6398 12.931 10.5932 12.9158 10.5456 12.9164C10.4979 12.917 10.4517 12.9334 10.4144 12.9631C10.3771 12.9927 10.3506 13.034 10.3392 13.0803C10.3278 13.1266 10.3322 13.1753 10.3515 13.2189C10.3773 13.2775 10.9982 14.6389 12.2709 14.6389C13.5436 14.6389 14.1645 13.2775 14.1903 13.2198C14.2094 13.1763 14.2136 13.1278 14.2022 13.0817C14.1909 13.0356 14.1646 12.9945 14.1275 12.9649Z" fill="#662113"/>
</svg>
