<svg width="25" height="25" viewBox="0 0 25 25" fill="none" xmlns="http://www.w3.org/2000/svg">
<path d="M8.04676 13.7109C7.3827 12.8125 6.40613 9.92186 7.30457 9.2578L7.57801 9.06248C7.73426 10.1172 8.24207 11.4062 8.6327 11.9531L17.4999 24.1797H22.8124V22.5L13.5546 9.72655C12.8905 8.82811 10.4686 6.99217 9.5702 7.65623L7.34363 9.2578C6.40613 9.8828 7.3827 12.8125 8.04676 13.7109Z" fill="#FFDD67"/>
<path d="M7.57801 9.0625L7.30457 9.25781C6.40613 9.92188 7.3827 12.8125 8.04676 13.7109L15.6249 24.2188H17.4608L8.6327 11.9531C8.24207 11.4062 7.73426 10.1172 7.57801 9.0625Z" fill="#EBA352"/>
<path d="M18.8281 6.48436L16.5625 7.85154L16.7188 7.73436C16.7969 8.71092 17.1485 9.84373 17.461 10.3906L22.7735 19.2187V9.41404L22.4219 8.82811C21.9141 7.89061 19.7266 5.93748 18.8281 6.48436Z" fill="#FFDD67"/>
<path d="M16.7188 7.77344L16.5625 7.89063C15.6641 8.4375 16.3672 11.2891 16.9141 12.1875L22.8125 21.9922V19.2578L17.5 10.3906C17.1875 9.88281 16.7969 8.75 16.7188 7.77344Z" fill="#EBA352"/>
<path d="M5.58593 16.8359L3.59374 18.5547C2.77343 19.2187 3.90624 21.875 4.60937 22.6953C3.90624 21.875 2.77343 19.2187 3.55468 18.5156L3.94531 18.2031C4.14062 19.2187 4.76562 20.4687 5.19531 20.9765L7.92968 24.2187H14.375L9.53124 18.5156C8.82812 17.6953 6.36718 16.1328 5.58593 16.8359Z" fill="#FFDD67"/>
<path d="M5.19531 20.9766C4.76562 20.4688 4.14062 19.2578 3.94531 18.2031L3.55468 18.5156C2.77343 19.2188 3.90624 21.875 4.60937 22.6953L5.89843 24.1797H7.96874L5.19531 20.9766Z" fill="#EBA352"/>
<path d="M8.2423 12.6171C9.57043 14.4531 10.9767 14.414 12.1486 13.5547C13.3204 12.6953 13.8282 11.4062 12.5001 9.53121C11.172 7.69527 8.59386 6.13277 7.42199 6.99215C6.25011 7.89059 6.87511 10.7812 8.2423 12.6171Z" fill="#FF8736"/>
<path d="M10.7813 10.664C11.9923 12.3437 11.9532 12.9296 12.3438 12.6171C12.7344 12.3437 13.2423 11.4062 12.0313 9.72652C10.8204 8.04684 8.59382 6.95309 8.20319 7.22652C7.81257 7.53902 9.57038 8.98434 10.7813 10.664Z" fill="#FFB77B"/>
<path d="M17.1485 11.1328C18.2813 13.0078 19.6095 13.0469 20.7813 12.3438C21.9532 11.6406 22.5392 10.4297 21.4454 8.55471C20.3126 6.67971 18.0079 5.03908 16.836 5.74221C15.6642 6.4844 16.0157 9.2969 17.1485 11.1328Z" fill="#FF8736"/>
<path d="M19.7657 9.49216C20.7813 11.1719 20.7032 11.7187 21.0938 11.4844C21.4845 11.25 22.0313 10.3906 21.0548 8.71091C20.0001 7.03123 17.9688 5.78123 17.5782 6.0156C17.1876 6.24998 18.7501 7.81248 19.7657 9.49216Z" fill="#FFB77B"/>
<path d="M4.68756 21.6796C6.09381 23.3593 7.42194 23.164 8.47662 22.2656C9.53131 21.3671 9.92194 20.0781 8.51569 18.4375C7.10944 16.7578 4.57037 15.5078 3.51569 16.4062C2.42194 17.3046 3.28131 20 4.68756 21.6796Z" fill="#FF8736"/>
<path d="M6.9532 19.6094C8.2032 21.0937 8.24226 21.6797 8.59382 21.3672C8.94538 21.0547 9.37507 20.1562 8.08601 18.6328C6.83601 17.1484 4.60945 16.25 4.25788 16.5234C3.90632 16.8359 5.7032 18.125 6.9532 19.6094Z" fill="#FFB77B"/>
<path d="M8.32031 10.7422C8.32031 10.7422 7.8125 10.4297 7.14844 9.84375C7.30469 9.76562 7.42188 9.6875 7.5 9.57031C7.5 9.57031 4.41406 7.38281 3.67187 2.61719C3.67187 2.61719 2.14844 5.9375 2.14844 8.75C2.14844 12.0312 5.625 13.0469 6.875 11.7969C6.875 11.7969 6.60156 11.6016 6.25 11.25C7.10938 11.2891 7.85156 11.1328 8.32031 10.7422Z" fill="#FF8736"/>
<path d="M8.63281 10.4687C8.63281 10.4687 7.85156 10.4297 7.1875 9.84375C7.1875 9.84375 7.77344 9.88281 8.00781 9.57031C8.00781 9.57031 4.49219 7.38281 3.75 2.61719C3.75 2.61719 3.51562 3.125 3.24219 3.86719C3.90625 8.35938 6.64062 9.53125 6.64062 9.53125C6.52344 9.64844 4.6875 9.17969 4.6875 9.17969C5.27344 10.0781 7.53906 10.5859 7.53906 10.5859C5.625 11.0156 4.02344 10.3516 4.02344 10.3516C4.41406 11.3281 5.97656 11.7969 5.97656 11.7969C5.97656 11.7969 5.50781 12.2266 4.64844 12.1484C5.54687 12.4219 6.44531 12.3047 6.95312 11.7578C6.95312 11.7578 6.67969 11.5625 6.32813 11.2109C7.10938 11.2891 8.16406 11.1328 8.63281 10.4687Z" fill="#D8681D"/>
<path d="M2.73438 0.742188H4.49219V5.23438H2.73438V0.742188Z" fill="#454749"/>
</svg>
