<svg width="25" height="25" viewBox="0 0 25 25" fill="none" xmlns="http://www.w3.org/2000/svg">
<path d="M20.8055 16.0326C23.611 18.75 23.6409 23.6257 22.9311 23.6257C22.2214 23.6257 20.0735 22.3396 18.7173 20.8917C17.361 19.4438 17.502 16.1847 17.502 16.1847L18.6034 13.1854C18.6034 13.1847 17.9999 13.3153 20.8055 16.0326Z" fill="#292F33"/>
<path d="M18.7222 16.0326C21.5278 18.75 21.5576 23.6257 20.8479 23.6257C20.1382 23.6257 17.9903 22.3396 16.634 20.8917C15.2778 19.4438 15.4187 16.1847 15.4187 16.1847L16.5201 13.1854C16.5201 13.1847 15.9166 13.3153 18.7222 16.0326ZM2.08331 23.6111C1.38887 23.6111 1.38887 18.75 4.16665 15.9722C6.94442 13.1945 6.24998 13.1945 6.24998 13.1945L7.63887 15.9722C7.63887 15.9722 7.63887 19.4445 6.24998 20.8333C4.86109 22.2222 2.77776 23.6111 2.08331 23.6111Z" fill="#292F33"/>
<path d="M4.16656 23.6111C3.47212 23.6111 3.47212 18.75 6.2499 15.9722C9.02768 13.1945 8.33323 13.1945 8.33323 13.1945L9.72212 15.9722C9.72212 15.9722 9.72212 19.4445 8.33323 20.8333C6.94434 22.2222 4.86101 23.6111 4.16656 23.6111Z" fill="#292F33"/>
<path d="M4.80147 12.7452C4.40494 11.2632 3.33203 10.2625 2.40564 10.5111C1.47925 10.7598 1.05147 12.1625 1.448 13.6438C1.84453 15.1264 2.91744 16.1257 3.84383 15.8778C4.77022 15.6292 5.19869 14.2264 4.80147 12.7452ZM23.5522 13.6438C23.9487 12.1618 23.5202 10.7591 22.5938 10.5105C21.6681 10.2632 20.5952 11.2625 20.1987 12.7452C19.8015 14.2271 20.2299 15.6292 21.1563 15.8778C22.0827 16.1264 23.1556 15.1257 23.5522 13.6438Z" fill="#F7DECE"/>
<path d="M21.5277 13.1945C21.5277 6.67435 17.4861 2.08337 12.4999 2.08337C7.51383 2.08337 3.47217 6.67435 3.47217 13.1945C3.47217 19.7146 7.51383 23.6112 12.4999 23.6112C17.4861 23.6112 21.5277 19.7146 21.5277 13.1945Z" fill="#F7DECE"/>
<path d="M12.5001 19.2021C10.8195 19.2021 9.53204 18.725 9.47787 18.7056C9.30539 18.6409 9.16565 18.5104 9.0894 18.3428C9.01315 18.1751 9.00663 17.984 9.07128 17.8115C9.13592 17.639 9.26644 17.4993 9.43412 17.423C9.60179 17.3468 9.79289 17.3402 9.96538 17.4049C9.97649 17.4091 11.0834 17.8132 12.5001 17.8132C13.9168 17.8132 15.0244 17.4091 15.0348 17.4049C15.2072 17.3408 15.398 17.3478 15.5653 17.4242C15.7326 17.5006 15.8627 17.6403 15.9272 17.8125C15.9916 17.9848 15.9851 18.1755 15.909 18.3429C15.833 18.5103 15.6937 18.6407 15.5216 18.7056C15.4682 18.7257 14.1813 19.2021 12.5001 19.2021Z" fill="#DF1F32"/>
<path d="M13.1944 15.9723H11.8055C11.6214 15.9723 11.4447 15.8991 11.3145 15.7689C11.1842 15.6386 11.1111 15.462 11.1111 15.2778C11.1111 15.0936 11.1842 14.917 11.3145 14.7868C11.4447 14.6565 11.6214 14.5834 11.8055 14.5834H13.1944C13.3786 14.5834 13.5552 14.6565 13.6855 14.7868C13.8157 14.917 13.8889 15.0936 13.8889 15.2778C13.8889 15.462 13.8157 15.6386 13.6855 15.7689C13.5552 15.8991 13.3786 15.9723 13.1944 15.9723Z" fill="#C1694F"/>
<path d="M8.33336 13.8889C8.14918 13.8889 7.97255 13.8157 7.84231 13.6855C7.71208 13.5552 7.63892 13.3786 7.63892 13.1944V11.8055C7.63892 11.6214 7.71208 11.4447 7.84231 11.3145C7.97255 11.1842 8.14918 11.1111 8.33336 11.1111C8.51754 11.1111 8.69417 11.1842 8.82441 11.3145C8.95464 11.4447 9.0278 11.6214 9.0278 11.8055V13.1944C9.0278 13.3786 8.95464 13.5552 8.82441 13.6855C8.69417 13.8157 8.51754 13.8889 8.33336 13.8889ZM16.6667 13.8889C16.4825 13.8889 16.3059 13.8157 16.1756 13.6855C16.0454 13.5552 15.9722 13.3786 15.9722 13.1944V11.8055C15.9722 11.6214 16.0454 11.4447 16.1756 11.3145C16.3059 11.1842 16.4825 11.1111 16.6667 11.1111C16.8509 11.1111 17.0275 11.1842 17.1577 11.3145C17.288 11.4447 17.3611 11.6214 17.3611 11.8055V13.1944C17.3611 13.3786 17.288 13.5552 17.1577 13.6855C17.0275 13.8157 16.8509 13.8889 16.6667 13.8889Z" fill="#662113"/>
<path d="M22.2222 6.94446C20.8333 2.08335 17.3611 0.694458 15.2778 0.694458C13.8889 0.694458 12.5 2.08335 12.5 2.08335C12.5 2.08335 11.1111 0.694458 9.72221 0.694458C7.63888 0.694458 4.16666 2.08335 2.77777 6.94446C1.63333 10.9507 3.47221 14.5833 3.47221 14.5833C3.47221 12.4993 4.8611 8.33335 8.33332 8.33335C11.8055 8.33335 12.5 5.55557 12.5 5.55557C12.5 5.55557 13.0458 8.33335 16.518 8.33335C19.9903 8.33335 21.5278 12.5 21.5278 14.5833C21.5278 14.5833 23.3667 10.9507 22.2222 6.94446Z" fill="#292F33"/>
</svg>
